<svg xmlns="http://www.w3.org/2000/svg" viewBox="0 0 512 512">
  <rect width="512" height="512" rx="100" fill="#2563eb"/>
  <path d="M368 160H144c-17.6 0-32 14.4-32 32v224c0 17.6 14.4 32 32 32h224c17.6 0 32-14.4 32-32V192c0-17.6-14.4-32-32-32zm-16 224H160V208h192v176z" fill="white" opacity="0.5"/>
  <path d="M336 256h-96c-8.8 0-16 7.2-16 16s7.2 16 16 16h96c8.8 0 16-7.2 16-16s-7.2-16-16-16zm0 64h-96c-8.8 0-16 7.2-16 16s7.2 16 16 16h96c8.8 0 16-7.2 16-16s-7.2-16-16-16z" fill="white"/>
  <path d="M144 64h224c17.6 0 32 14.4 32 32v32H112V96c0-17.6 14.4-32 32-32z" fill="#60a5fa"/>
</svg>